<?xml version="1.0" standalone="no"?>
<!DOCTYPE svg PUBLIC "-//W3C//DTD SVG 20010904//EN"
 "http://www.w3.org/TR/2001/REC-SVG-20010904/DTD/svg10.dtd">
<svg version="1.0" xmlns="http://www.w3.org/2000/svg"
 width="512.000000pt" height="512.000000pt" viewBox="0 0 512.000000 512.000000"
 preserveAspectRatio="xMidYMid meet">
<metadata>
Created by potrace 1.14, written by Peter Selinger 2001-2017
</metadata>
<g transform="translate(0.000000,512.000000) scale(0.100000,-0.100000)"
fill="#000000" stroke="none">
<path d="M0 2560 l0 -2560 2560 0 2560 0 0 2560 0 2560 -2560 0 -2560 0 0
-2560z m3690 1824 c73 -34 180 -126 180 -154 0 -21 16 -36 22 -20 2 6 9 1 16
-11 8 -12 9 -18 3 -15 -5 4 -14 0 -18 -9 -11 -19 -4 -87 8 -79 5 3 9 0 9 -5 0
-6 -4 -11 -10 -11 -6 0 -10 -27 -10 -62 0 -61 0 -62 17 -38 22 31 25 108 6
138 -8 13 -12 31 -10 40 3 11 5 9 7 -8 1 -23 2 -24 11 -5 l9 20 -2 -20 c-1
-11 3 -30 10 -42 7 -13 10 -23 6 -23 -3 0 -1 -7 6 -15 9 -11 9 -15 1 -15 -7 0
-10 -11 -7 -27 2 -16 5 -46 7 -68 l2 -40 7 40 c4 24 5 7 3 -40 -7 -101 -22
-149 -48 -153 -17 -2 -18 -1 -4 7 29 18 42 90 30 167 l-10 69 5 -73 c6 -88 0
-112 -26 -105 -15 4 -20 14 -20 37 l1 31 13 -30 c12 -28 13 -26 12 40 0 39 -2
57 -4 40 -4 -25 -5 -27 -12 -10 -5 14 -9 5 -14 -32 -3 -29 -11 -55 -16 -58
-16 -10 -12 -55 5 -61 8 -4 15 -10 15 -15 0 -5 -7 -9 -15 -9 -8 0 -15 6 -15
13 0 8 -4 7 -10 -3 -5 -8 -10 -40 -11 -70 -1 -43 -3 -49 -9 -30 l-8 25 -2 -25
c-1 -14 -3 -40 -5 -58 -1 -18 -6 -36 -10 -40 -5 -4 -5 3 -2 16 11 46 -10 11
-29 -47 -10 -34 -22 -61 -26 -61 -3 0 -9 -13 -13 -30 -4 -16 -10 -30 -15 -30
-5 0 -11 -13 -15 -30 -4 -16 -11 -30 -16 -30 -5 0 -9 -16 -9 -36 0 -21 -4 -33
-10 -29 -5 3 -10 -3 -10 -14 0 -11 -5 -23 -11 -27 -6 -3 -8 -18 -5 -33 3 -14
3 -20 0 -13 -5 10 -9 10 -20 1 -17 -14 -19 2 -3 18 6 6 10 16 8 22 -3 7 -13
-5 -24 -26 -11 -21 -30 -51 -42 -66 -13 -16 -23 -35 -23 -43 0 -8 -4 -14 -10
-14 -5 0 -10 -7 -10 -15 0 -19 14 -19 30 0 11 13 17 34 19 61 1 7 8 15 17 18
15 6 15 3 -1 -20 -16 -24 -16 -26 -1 -21 27 11 2 -28 -39 -59 -27 -20 -34 -31
-29 -48 6 -27 -25 -59 -45 -47 -11 7 -11 13 0 32 11 20 14 21 17 7 4 -22 22
-24 22 -3 0 8 -4 15 -10 15 -5 0 -10 7 -10 16 0 8 4 13 9 9 13 -8 21 8 12 23
-5 9 -12 4 -22 -15 -8 -16 -22 -37 -32 -48 -10 -10 -16 -24 -13 -31 2 -6 0
-17 -6 -25 -7 -11 -8 -9 -4 6 5 13 -4 8 -24 -15 -16 -19 -28 -41 -25 -48 3 -8
0 -12 -7 -10 -14 5 -78 -69 -78 -89 0 -6 -6 -13 -12 -16 -9 -3 -6 -11 10 -26
29 -28 28 -31 -8 -26 -25 3 -31 -1 -36 -20 -3 -13 -3 -29 1 -34 3 -7 0 -8 -9
-5 -19 7 -19 6 -1 52 13 29 18 34 25 22 8 -13 10 -13 10 1 0 25 -10 29 -28 11
-28 -29 -53 -72 -42 -72 6 0 8 -5 5 -10 -5 -8 -11 -8 -20 0 -9 8 -14 7 -18 -5
-4 -8 -1 -14 6 -12 6 1 13 -9 14 -23 2 -21 1 -22 -5 -5 -10 28 -38 27 -51 -1
-11 -26 -3 -32 17 -12 9 9 12 8 12 -4 0 -10 -11 -17 -29 -20 -22 -3 -28 -1
-23 11 4 9 -1 8 -14 -5 -11 -10 -17 -21 -14 -24 3 -3 5 -11 4 -17 -1 -7 -2
-20 -3 -29 -1 -11 -10 -14 -33 -12 -26 2 -39 -4 -70 -35 -37 -38 -48 -55 -28
-42 6 3 10 1 10 -4 0 -6 -6 -11 -14 -11 -12 0 -26 -25 -30 -55 0 -5 -11 -11
-24 -13 -22 -3 -22 -3 4 23 14 14 23 29 19 33 -4 4 -12 0 -18 -8 -7 -8 -32
-31 -57 -50 -66 -51 -69 -55 -59 -71 5 -8 9 -18 9 -24 -1 -5 -5 -2 -11 8 -5 9
-15 17 -20 17 -6 0 -7 -5 -3 -11 7 -11 -12 -29 -31 -29 -5 0 -3 5 5 10 9 6 10
10 3 10 -15 0 -27 -19 -28 -45 0 -12 -8 -20 -20 -22 -16 -1 -16 -1 -2 3 18 6
24 24 8 24 -11 0 -59 -42 -58 -50 2 -14 -23 -44 -30 -36 -4 5 -2 11 5 13 6 3
12 9 12 14 0 5 -12 2 -26 -7 -18 -13 -22 -19 -12 -25 7 -4 9 -11 5 -15 -3 -4
-13 -2 -20 5 -11 9 -17 8 -27 -3 -6 -9 -9 -20 -5 -26 3 -5 1 -10 -4 -10 -6 0
-11 4 -11 10 0 5 -6 7 -14 4 -8 -3 -12 -13 -9 -24 3 -12 -3 -22 -19 -31 -12
-6 -26 -16 -29 -22 -4 -5 -13 -7 -20 -5 -9 4 -5 10 14 18 15 7 27 17 27 22 0
5 -18 -1 -39 -13 -22 -12 -39 -26 -38 -31 1 -5 -18 -16 -43 -25 -48 -16 -84
-41 -41 -28 15 4 21 3 17 -3 -8 -13 -46 -22 -46 -11 0 4 -7 6 -15 3 -8 -4 -12
-11 -8 -17 3 -6 1 -7 -5 -3 -6 4 -26 -1 -44 -10 -33 -17 -33 -18 -9 -24 14 -3
26 -12 29 -20 2 -10 1 -11 -5 -4 -17 23 -60 24 -104 2 -24 -12 -48 -23 -54
-24 -5 -1 -26 -9 -45 -18 l-35 -15 33 -1 c17 0 32 5 32 10 0 6 4 10 9 10 5 0
9 -11 9 -25 0 -21 -3 -23 -19 -14 -28 15 -136 16 -151 1 -17 -17 15 -16 42 0
17 11 22 10 29 -1 5 -7 14 -11 20 -7 6 4 23 1 37 -7 l27 -14 -32 -11 c-18 -6
-29 -7 -26 -2 4 6 13 10 22 10 31 0 8 7 -42 14 -36 4 -44 3 -30 -4 15 -7 11
-8 -15 -3 -19 4 -55 6 -80 5 -109 -7 -308 -4 -342 6 -42 11 -43 10 -27 -21 11
-21 10 -21 -15 2 -14 14 -26 30 -26 38 0 7 -8 13 -17 13 -23 0 -114 99 -140
152 -28 55 -38 186 -24 295 10 77 68 277 96 333 7 14 46 91 86 173 40 81 77
147 81 147 4 0 8 5 8 11 0 24 223 346 304 439 17 20 53 63 81 95 62 74 331
344 405 406 87 74 136 113 160 129 12 8 43 31 68 50 54 41 75 54 224 141 125
72 242 130 303 149 22 7 45 16 50 21 10 7 81 27 200 54 37 9 103 13 175 12
105 -3 121 -6 180 -33z m220 -584 c0 -5 -4 -10 -10 -10 -5 0 -10 5 -10 10 0 6
5 10 10 10 6 0 10 -4 10 -10z m32 -62 c-15 -15 -16 -32 -2 -23 6 3 10 1 10 -4
0 -6 -4 -11 -9 -11 -5 0 -12 -8 -14 -17 -3 -10 -5 -2 -6 18 -1 32 16 65 28 54
2 -3 -1 -11 -7 -17z m-77 -184 c22 -46 24 -80 3 -68 -6 4 -8 1 -6 -7 7 -18 -9
-49 -25 -49 -8 0 -7 3 2 9 10 6 12 19 7 42 -4 24 -3 30 4 19 7 -12 10 -8 9 15
0 17 -3 24 -6 18 -2 -7 -9 -13 -14 -13 -6 0 -5 8 1 20 7 14 8 26 0 39 -11 22
-13 38 -4 28 4 -3 17 -27 29 -53z m34 24 c-8 -16 -29 -26 -29 -14 0 16 13 33
25 33 10 0 11 -5 4 -19z m-78 -39 c-6 -16 -10 -18 -10 -7 -1 22 12 55 16 42 2
-6 -1 -22 -6 -35z m-30 -6 c-12 -20 -14 -14 -5 12 4 9 9 14 11 11 3 -2 0 -13
-6 -23z m-40 -86 c-10 -9 -11 -8 -5 6 3 10 9 15 12 12 3 -3 0 -11 -7 -18z m29
-23 c0 -12 6 -15 25 -10 15 4 25 2 25 -4 0 -6 -5 -8 -10 -5 -12 8 -29 -35 -22
-54 3 -9 1 -12 -6 -7 -7 4 -10 17 -6 30 3 14 -1 27 -11 36 -13 11 -18 10 -30
-6 -8 -10 -15 -25 -15 -31 0 -7 -4 -13 -10 -13 -14 0 7 52 27 68 23 16 33 15
33 -4z m5 -94 c5 -9 4 -11 -3 -6 -7 4 -12 2 -12 -3 0 -6 5 -11 10 -11 14 0 12
-17 -3 -23 -9 -3 -13 4 -12 22 1 14 -3 37 -7 49 -4 13 -5 29 -1 35 4 7 10 -1
14 -19 3 -17 9 -37 14 -44z m45 51 c0 -6 -4 -13 -10 -16 -5 -3 -10 1 -10 9 0
9 5 16 10 16 6 0 10 -4 10 -9z m-110 -110 c0 -5 -6 -14 -14 -20 -17 -14 -28
-51 -15 -51 5 0 9 6 9 13 0 6 10 24 23 39 19 23 24 25 35 13 10 -12 10 -15 -1
-15 -20 0 -51 -36 -38 -45 6 -3 11 1 11 9 0 9 7 16 15 16 12 0 9 -7 -10 -27
-14 -16 -23 -33 -21 -40 3 -7 0 -15 -7 -19 -7 -4 -9 -4 -5 1 4 4 0 14 -10 22
-9 8 -12 12 -5 9 6 -4 14 -2 18 4 3 5 -1 10 -10 10 -22 0 -40 43 -27 67 10 18
52 30 52 14z m-33 -143 c-3 -8 -6 -5 -6 6 -1 11 2 17 5 13 3 -3 4 -12 1 -19z
m-51 -23 c6 -14 8 -13 19 1 9 14 14 14 20 4 6 -9 4 -11 -5 -5 -10 6 -12 4 -7
-9 5 -11 3 -15 -5 -10 -8 5 -9 2 -5 -10 5 -11 3 -15 -5 -10 -7 5 -9 2 -6 -7 3
-9 -5 -25 -19 -39 l-24 -23 5 27 c4 24 3 26 -22 20 -27 -7 -27 -7 -8 14 10 12
23 19 29 15 6 -4 8 0 4 11 -4 10 -5 22 -1 27 8 14 24 11 30 -6z m-81 -155 c-3
-5 -1 -10 5 -10 17 0 -5 -33 -24 -36 -9 -1 -14 2 -10 7 3 5 10 7 15 4 5 -3 6
1 3 9 -3 9 -11 13 -18 9 -6 -4 -5 1 3 10 14 18 36 24 26 7z m-115 -30 c0 -5
-2 -10 -4 -10 -3 0 -8 5 -11 10 -3 6 -1 10 4 10 6 0 11 -4 11 -10z m-15 -39
c-6 -5 -25 10 -25 20 0 5 6 4 14 -3 8 -7 12 -15 11 -17z m35 -36 c0 -5 -5 -3
-10 5 -5 8 -10 20 -10 25 0 6 5 3 10 -5 5 -8 10 -19 10 -25z m57 22 c3 -5 1
-7 -4 -4 -6 4 -16 0 -23 -9 -11 -12 -15 -12 -21 -2 -5 7 -9 16 -9 19 0 11 50
7 57 -4z m-172 -47 c-14 -15 -15 -20 -4 -21 8 0 37 -2 66 -4 29 -2 52 0 52 3
-1 4 -1 14 0 22 1 13 2 13 11 0 12 -20 -8 -43 -33 -36 -22 5 -41 -11 -43 -36
-2 -25 13 -23 21 2 4 11 11 18 16 15 5 -4 -7 -23 -26 -43 -33 -35 -35 -36 -52
-19 -16 16 -16 17 0 17 10 0 15 -4 12 -10 -3 -5 -2 -10 4 -10 5 0 13 5 17 11
7 12 -15 31 -28 23 -4 -3 -8 -1 -8 5 0 5 5 13 10 16 6 3 10 1 10 -6 0 -18 13
-1 17 21 2 11 -2 20 -7 20 -6 0 -10 -6 -10 -12 0 -9 -4 -8 -10 2 -8 13 -11 11
-16 -7 -9 -33 -26 -17 -20 18 5 31 25 63 34 54 3 -3 -3 -14 -13 -25z m-6 -184
c9 3 6 -1 -7 -8 -12 -8 -19 -18 -15 -23 4 -4 3 -5 -4 -1 -6 3 -16 -1 -21 -10
-8 -14 -9 -12 -9 9 0 15 4 27 9 27 5 0 6 -5 2 -12 -5 -7 -3 -8 6 -3 10 6 10
11 -3 20 -25 18 -21 29 4 11 12 -8 29 -12 38 -10z m-208 -74 c-7 -2 -18 1 -23
6 -8 8 -4 9 13 5 13 -4 18 -8 10 -11z m86 -37 c-5 -38 -13 -38 -12 0 0 18 3
31 8 28 4 -2 6 -15 4 -28z m40 20 c-6 -7 -15 -11 -19 -8 -14 8 -8 19 12 20 16
1 17 -1 7 -12z m-140 -32 c-3 -10 -5 -4 -5 12 0 17 2 24 5 18 2 -7 2 -21 0
-30z m-17 -30 c0 -3 -18 -3 -39 -1 -35 3 -41 1 -46 -20 -3 -13 0 -31 7 -40 12
-14 11 -14 -9 -1 -23 14 -23 38 -2 64 8 10 89 8 89 -2z m76 -14 c9 -15 -15
-39 -33 -32 -12 5 -14 3 -8 -7 5 -8 4 -11 -2 -7 -7 5 -11 49 -4 52 12 5 42 1
47 -6z m-179 -65 c-3 -3 -12 -4 -19 -1 -8 3 -5 6 6 6 11 1 17 -2 13 -5z m132
-6 c-2 -2 -24 -21 -48 -43 -24 -22 -40 -33 -36 -25 5 8 17 21 27 28 10 7 18
18 18 24 0 6 -8 4 -18 -5 -24 -22 -32 -21 -32 3 0 16 5 18 34 15 19 -3 38 0
41 6 4 6 10 8 13 5 3 -3 3 -7 1 -8z m-249 -69 c0 -6 -4 -7 -10 -4 -5 3 -10 11
-10 16 0 6 5 7 10 4 6 -3 10 -11 10 -16z m70 12 c0 -6 -4 -13 -10 -16 -5 -3
-10 1 -10 9 0 9 5 16 10 16 6 0 10 -4 10 -9z m-33 -17 c-3 -3 -12 -4 -19 -1
-8 3 -5 6 6 6 11 1 17 -2 13 -5z m59 -19 c-7 -19 4 -19 33 1 l23 17 -17 -26
c-11 -17 -22 -24 -32 -20 -12 5 -14 3 -8 -8 5 -8 4 -11 -1 -6 -12 11 -13 57
-1 57 5 0 7 -7 3 -15z m-150 -80 c-21 -16 -32 -13 -21 4 3 6 14 11 23 11 15
-1 15 -2 -2 -15z m110 0 c-1 -5 -11 -9 -20 -7 -9 2 -15 -1 -14 -6 2 -4 -11
-22 -28 -39 -28 -28 -30 -29 -29 -10 1 15 9 23 24 25 22 3 22 4 4 19 -16 13
-16 14 -1 9 10 -3 20 0 24 6 4 6 3 9 -2 6 -5 -3 -18 -2 -29 2 -13 5 -4 7 27 6
27 0 46 -5 44 -11z m-101 -35 c-10 -11 -14 -20 -9 -20 5 0 2 -5 -6 -10 -10 -7
-11 -10 -2 -10 10 0 10 -4 0 -20 -8 -12 -19 -18 -29 -15 -9 3 -22 -2 -30 -12
-12 -15 -12 -16 6 -10 14 5 11 0 -10 -18 -21 -17 -31 -21 -37 -12 -4 7 -3 14
2 15 6 2 7 9 4 14 -4 7 -2 8 5 4 6 -4 8 -12 5 -18 -4 -7 -2 -8 4 -4 9 5 8 15
-3 37 -9 16 -13 29 -9 29 4 0 0 8 -7 18 -12 15 -12 16 2 4 9 -7 23 -10 32 -6
8 3 18 1 22 -5 11 -18 31 -12 32 10 2 24 20 49 36 49 5 0 2 -9 -8 -20z m-150
-20 c3 -5 2 -10 -4 -10 -5 0 -13 5 -16 10 -3 6 -2 10 4 10 5 0 13 -4 16 -10z
m-115 -70 c0 -5 -2 -10 -4 -10 -3 0 -8 5 -11 10 -3 6 -1 10 4 10 6 0 11 -4 11
-10z m45 -10 c-3 -5 -14 -10 -23 -9 -14 0 -13 2 3 9 27 11 27 11 20 0z m68
-40 c3 -13 0 -17 -9 -13 -8 3 -11 9 -8 14 3 5 1 9 -5 9 -5 0 -11 -6 -14 -12
-3 -7 -5 -4 -4 8 1 26 33 21 40 -6z m27 4 c0 -8 -4 -12 -10 -9 -5 3 -10 13
-10 21 0 8 5 12 10 9 6 -3 10 -13 10 -21z m-150 -4 c0 -11 -7 -20 -15 -20 -13
0 -14 4 -5 20 6 11 13 20 15 20 3 0 5 -9 5 -20z m73 -63 c-3 -5 -18 -5 -34 -2
-19 4 -29 3 -29 -5 0 -6 5 -8 10 -5 6 3 10 1 10 -5 0 -7 -7 -9 -16 -6 -11 4
-27 -6 -48 -29 -18 -19 -38 -35 -45 -35 -7 0 -9 -5 -5 -12 5 -9 3 -9 -9 1 -18
15 -14 33 6 25 7 -2 23 9 35 26 13 16 30 30 40 31 9 0 12 3 5 5 -18 8 -53 -14
-63 -39 -7 -18 -9 -16 -7 14 2 30 5 35 22 32 13 -3 16 -2 8 4 -8 6 14 9 56 8
38 0 67 -4 64 -8z m-253 -27 c0 -5 -5 -10 -11 -10 -5 0 -7 5 -4 10 3 6 8 10
11 10 2 0 4 -4 4 -10z m174 -24 c-10 -8 -21 -12 -24 -10 -5 6 21 24 34 24 6 0
1 -6 -10 -14z m-191 -13 c-7 -2 -19 -2 -25 0 -7 3 -2 5 12 5 14 0 19 -2 13 -5z
m73 -27 c0 -13 -7 -28 -16 -34 -13 -8 -16 -5 -18 16 -2 22 11 41 29 42 3 0 5
-11 5 -24z m-225 -36 c5 0 9 -4 9 -9 0 -12 -38 -2 -47 12 -4 7 0 8 11 4 10 -4
22 -7 27 -7z m-47 -9 c4 -5 -3 -7 -14 -4 -23 6 -26 13 -6 13 8 0 17 -4 20 -9z
m130 -23 c-3 -4 -1 -8 5 -8 5 0 13 5 17 11 4 8 9 8 18 -1 15 -15 -8 -29 -38
-23 -18 4 -19 3 -6 -7 12 -9 10 -10 -12 -6 -21 5 -26 3 -22 -8 3 -8 2 -16 -3
-19 -4 -3 -9 12 -11 32 -2 36 -1 38 27 38 17 0 28 -4 25 -9z m76 2 c0 -5 -2
-10 -4 -10 -3 0 -8 5 -11 10 -3 6 -1 10 4 10 6 0 11 -4 11 -10z m-817 -90 c4
0 6 3 4 8 -3 4 6 7 19 7 13 0 24 -3 24 -7 0 -5 -6 -8 -12 -8 -9 0 -9 -3 -2 -8
5 -4 10 -16 10 -27 l0 -21 -37 20 c-25 14 -33 23 -26 28 8 5 7 8 -4 8 -9 0
-20 7 -23 15 -5 14 -4 14 16 0 13 -8 26 -15 31 -15z m334 24 c-3 -3 -12 -4
-19 -1 -8 3 -5 6 6 6 11 1 17 -2 13 -5z m281 -20 c-15 -8 -25 -9 -29 -2 -4 6
-11 3 -18 -8 -11 -20 -15 -15 -6 9 4 8 20 14 41 14 34 0 35 -1 12 -13z m-77
-4 c13 0 11 -28 -3 -36 -7 -5 -9 -2 -5 9 4 11 2 14 -8 10 -8 -3 -12 -9 -9 -14
3 -5 -2 -9 -10 -9 -10 0 -13 6 -9 16 5 14 1 16 -23 11 l-29 -6 30 14 c17 8 36
12 43 10 8 -3 18 -5 23 -5z m-67 -45 c-4 -8 -7 -15 -9 -15 -2 0 -5 7 -9 15 -3
9 0 15 9 15 9 0 12 -6 9 -15z m-91 -28 c-3 -4 -7 -6 -10 -3 -3 2 -23 -2 -45
-10 -44 -15 -132 -19 -124 -5 3 5 27 6 53 3 27 -2 44 -1 40 4 -10 10 -147 12
-147 2 0 -5 10 -8 23 -9 12 0 16 -3 9 -6 -12 -5 -72 17 -72 27 0 3 63 5 139 5
77 1 137 -3 134 -8z m1980 -192 c-3 -9 -8 -14 -10 -11 -3 3 -2 9 2 15 9 16 15
13 8 -4z m-2641 -302 c5 -261 11 -284 76 -321 22 -12 51 -22 66 -22 35 0 84
32 109 71 20 32 22 50 25 267 l4 232 52 0 c29 0 59 -6 68 -12 14 -11 102 -135
133 -187 6 -9 42 -64 80 -121 l70 -105 5 210 5 210 63 3 62 3 0 -346 0 -345
-54 0 -54 0 -108 160 c-60 88 -127 190 -149 225 -22 35 -43 65 -46 65 -4 0 -9
-60 -11 -132 -3 -110 -8 -142 -27 -183 -40 -90 -102 -133 -202 -142 -117 -11
-206 35 -257 131 l-27 51 -3 258 -3 257 59 0 60 0 4 -227z m981 30 c4 -108 7
-263 7 -345 l0 -148 -63 0 -64 0 -5 338 c-4 185 -4 340 -1 345 2 4 30 7 62 7
l58 0 6 -197z m167 -83 l0 -279 153 -3 152 -3 3 -62 3 -63 -221 0 -220 0 0
345 0 345 65 0 65 0 0 -280z m470 -65 l0 -345 -65 0 -65 0 0 345 0 345 65 0
65 0 0 -345z m286 135 c76 -115 142 -209 147 -210 4 0 7 92 7 205 l0 205 230
0 230 0 0 -60 0 -60 -165 0 -166 0 3 -77 3 -78 138 -3 138 -3 -3 -62 -3 -62
-137 3 -138 4 0 -81 0 -81 165 0 166 0 -3 -62 -3 -63 -219 1 c-163 0 -221 3
-224 12 -2 7 -9 18 -16 25 -6 6 -33 46 -60 87 -45 71 -86 133 -103 155 -5 6
-30 44 -58 85 l-50 75 -3 -217 -2 -218 -59 0 -58 0 -6 137 c-4 75 -7 230 -7
345 l0 208 59 0 58 0 139 -210z"/>
<path d="M3390 4330 c0 -6 -16 -9 -37 -6 -21 2 -49 -1 -63 -6 -14 -6 -32 -11
-40 -12 -42 -6 -110 -30 -110 -38 0 -6 -8 -7 -17 -4 -17 6 -17 5 -1 -8 16 -12
14 -13 -20 -12 -43 2 -110 -25 -79 -32 16 -3 15 -6 -8 -18 -36 -18 -54 -18
-29 1 29 22 -3 18 -46 -5 -37 -20 -34 -28 3 -9 21 10 21 10 3 -5 -12 -9 -28
-13 -39 -10 -11 3 -22 2 -26 -2 -3 -5 -41 -27 -83 -49 -43 -22 -78 -42 -78
-45 0 -7 -78 -60 -88 -60 -4 0 -19 -11 -34 -25 -15 -14 -30 -25 -33 -25 -4 0
-19 -10 -33 -22 -17 -13 -20 -19 -9 -15 10 4 23 7 28 7 6 0 7 5 4 10 -10 17
12 11 26 -7 12 -15 12 -16 -3 -10 -14 5 -18 1 -19 -21 l-1 -27 -8 25 c-7 23
-8 23 -15 6 -5 -11 -3 -26 4 -37 12 -21 2 -26 -16 -8 -6 6 -17 8 -23 4 -9 -6
-9 -9 0 -15 6 -4 -6 -6 -29 -4 -46 3 -83 -5 -76 -16 3 -5 -4 -11 -15 -15 -22
-7 -24 -13 -10 -35 5 -8 12 -11 17 -7 4 5 1 12 -6 16 -9 6 -10 11 -2 15 15 9
27 -22 13 -36 -7 -7 -17 -6 -31 1 -15 8 -21 9 -21 1 0 -6 -4 -9 -9 -5 -6 3
-15 -3 -20 -14 -6 -11 -20 -23 -31 -26 -11 -3 -20 -15 -20 -26 0 -10 -6 -18
-12 -16 -7 1 -12 -6 -12 -15 1 -10 -4 -14 -12 -11 -16 6 -44 -19 -44 -39 0 -8
4 -7 11 5 12 21 31 23 23 2 -7 -17 11 -21 19 -5 3 6 4 5 3 -2 -2 -8 -18 -13
-42 -12 -42 0 -76 -28 -66 -55 3 -9 1 -12 -6 -7 -7 4 -17 4 -24 0 -8 -5 -6
-10 8 -16 14 -6 11 -7 -9 -3 -25 5 -28 3 -22 -14 8 -26 -36 -74 -59 -65 -9 3
-16 1 -16 -4 0 -6 -20 -32 -43 -57 -43 -45 -44 -47 -41 -108 1 -47 0 -52 -5
-23 -3 22 -12 41 -18 44 -7 2 -13 0 -13 -5 0 -8 -46 -73 -100 -143 -56 -72
-79 -106 -80 -117 0 -7 -4 -13 -10 -13 -5 0 -10 -7 -10 -15 0 -12 3 -12 20 2
11 10 20 23 20 29 0 7 9 22 21 35 l20 24 -6 -23 c-4 -15 -1 -24 9 -28 18 -7
22 -49 6 -59 -13 -8 -13 -25 0 -25 6 0 15 12 20 26 12 30 40 61 40 44 0 -6 5
-8 11 -4 6 3 8 18 5 33 -5 22 -5 23 5 8 6 -10 7 -26 3 -35 -4 -9 -6 -21 -5
-25 1 -5 -8 -6 -19 -2 -11 4 -20 2 -20 -4 0 -6 6 -11 13 -11 7 -1 5 -6 -5 -14
-10 -7 -14 -17 -10 -21 4 -5 1 -4 -7 0 -11 6 -13 4 -8 -10 7 -17 -8 -45 -24
-45 -4 0 -7 9 -6 19 0 11 5 17 9 15 15 -10 8 9 -8 21 -13 9 -14 16 -5 33 14
26 15 54 1 32 -8 -12 -10 -11 -10 8 0 12 -4 22 -10 22 -5 0 -10 -8 -10 -18 0
-21 -29 -52 -48 -52 -7 0 -12 -4 -12 -10 0 -5 -8 -7 -17 -3 -10 3 -15 2 -10
-2 4 -5 0 -19 -9 -33 -8 -13 -13 -31 -10 -39 4 -11 2 -13 -9 -9 -15 5 -20 -9
-17 -47 2 -21 -25 -85 -44 -104 -19 -20 -29 -15 -12 5 19 21 52 91 46 97 -9 9
-71 -111 -71 -137 0 -16 -2 -26 -5 -23 -3 2 -13 -7 -24 -21 -17 -21 -18 -29
-9 -56 6 -17 9 -34 6 -37 -3 -3 -8 5 -12 18 -6 22 -6 22 -18 -6 -26 -58 -33
-89 -23 -107 7 -12 7 -21 -1 -29 -6 -6 -11 -26 -11 -44 0 -32 -14 -45 -23 -20
-2 6 -3 5 -2 -4 1 -9 -2 -23 -7 -32 -5 -9 -9 -65 -9 -124 -1 -91 2 -109 17
-120 10 -7 13 -13 6 -13 -15 0 3 -50 27 -76 10 -11 26 -33 37 -48 11 -18 44
-41 84 -60 62 -29 71 -30 200 -30 132 0 138 1 255 42 111 38 339 146 376 178
8 8 19 14 22 14 4 0 29 16 56 35 26 19 51 35 55 35 9 0 169 122 265 204 150
126 423 402 501 505 14 19 32 42 40 51 43 52 50 61 50 66 0 5 57 81 70 94 7 7
89 133 127 195 60 98 125 232 160 330 42 119 85 332 72 357 -5 10 -7 28 -3 42
4 17 0 27 -13 35 -10 6 -13 11 -6 11 6 0 10 8 8 18 -2 9 -4 31 -5 47 -1 17 -4
24 -7 17 -8 -20 -32 5 -26 27 7 29 -41 96 -87 120 -82 43 -213 65 -223 39 -4
-10 -6 -10 -6 0 -1 14 -41 17 -41 2z m-140 -44 c0 -2 -7 -7 -16 -10 -8 -3 -12
-2 -9 4 6 10 25 14 25 6z m415 -17 c16 -16 -19 -9 -40 7 -19 16 -19 16 5 9 14
-4 29 -11 35 -16z m-485 -9 c8 -5 12 -11 9 -14 -3 -3 -14 1 -25 9 -21 16 -8
20 16 5z m90 -10 c-19 -13 -30 -13 -30 0 0 6 10 10 23 10 18 0 19 -2 7 -10z
m426 -2 c4 -7 4 -10 -1 -6 -4 4 -17 2 -28 -4 -19 -10 -20 -11 -3 -23 12 -10
14 -15 5 -20 -7 -5 -16 -1 -21 9 -12 22 -29 21 -21 -1 6 -15 4 -16 -9 -6 -8 7
-17 10 -20 7 -3 -3 -9 -1 -13 5 -3 6 1 11 9 11 9 0 16 5 16 11 0 5 4 7 10 4 5
-3 22 1 37 9 16 8 29 15 30 16 1 0 5 -6 9 -12z m-471 -18 c-3 -5 -10 -10 -16
-10 -5 0 -9 5 -9 10 0 6 7 10 16 10 8 0 12 -4 9 -10z m79 -5 c-6 -16 -24 -21
-24 -7 0 11 11 22 21 22 5 0 6 -7 3 -15z m101 -3 c4 -10 -1 -11 -18 -7 -17 6
-19 5 -10 -5 16 -17 44 -5 37 15 -3 8 -1 15 5 15 6 0 11 -4 11 -10 0 -5 5 -10
11 -10 5 0 8 3 6 8 -3 4 14 8 37 9 l41 1 -35 -10 c-19 -5 -38 -14 -41 -20 -3
-5 -10 -10 -15 -10 -5 0 -15 -3 -22 -5 -7 -3 -21 -3 -32 0 -11 3 -23 1 -26 -4
-7 -12 -24 -11 -24 1 0 6 7 10 15 10 8 0 15 5 15 10 0 15 -17 12 -35 -6 -9 -9
-19 -13 -23 -9 -4 3 1 12 10 19 10 7 16 15 13 17 -2 2 14 4 35 4 24 0 42 -5
45 -13z m178 1 c-13 -13 -35 -18 -73 -19 l-55 -1 45 9 c25 5 52 13 60 18 27
16 41 11 23 -7z m147 -62 c-1 -10 -6 -7 -15 9 -19 33 -18 50 0 26 8 -11 15
-27 15 -35z m-488 14 c-2 -14 -9 -24 -15 -22 -6 2 -43 -13 -82 -32 -38 -19
-75 -36 -81 -36 -6 0 -18 -6 -27 -13 -9 -8 -26 -10 -44 -7 -22 5 -25 4 -13 -5
13 -9 12 -10 -5 -8 -11 2 -19 -2 -18 -9 2 -8 -4 -10 -15 -6 -26 10 -68 33 -60
33 3 0 14 3 24 7 13 5 15 3 9 -7 -6 -10 -4 -11 11 -5 10 5 39 9 63 10 26 0 46
6 49 13 6 19 59 43 79 35 15 -6 16 -4 5 9 -17 21 -6 27 39 23 29 -3 42 2 60
21 12 13 23 24 24 24 1 0 0 -11 -3 -25z m45 3 c-3 -8 -6 -5 -6 6 -1 11 2 17 5
13 3 -3 4 -12 1 -19z m417 -27 c-2 -3 -12 3 -22 13 -16 17 -16 18 5 5 12 -7
20 -15 17 -18z m-707 13 c-3 -3 -12 -4 -19 -1 -8 3 -5 6 6 6 11 1 17 -2 13 -5z
m64 -24 c6 0 8 4 4 9 -3 6 4 9 15 8 26 -2 26 -14 0 -22 -23 -7 -40 1 -39 18 0
9 2 9 6 0 2 -7 9 -13 14 -13z m-181 -10 c0 -5 -6 -10 -14 -10 -21 0 -40 -27
-24 -33 7 -3 -2 -4 -19 -4 -31 2 -49 27 -19 27 7 0 27 7 42 15 34 18 34 18 34
5z m868 -3 c6 -7 8 -18 4 -24 -5 -7 -13 -2 -25 13 -14 19 -15 24 -4 24 8 0 19
-6 25 -13z m-868 -27 c0 -5 -5 -10 -11 -10 -5 0 -7 5 -4 10 3 6 8 10 11 10 2
0 4 -4 4 -10z m35 -62 c27 -12 35 -31 8 -21 -11 4 -14 3 -9 -5 4 -8 2 -10 -8
-6 -9 3 -12 12 -9 21 4 11 2 14 -5 9 -7 -4 -12 -2 -12 3 0 14 3 14 35 -1z
m-215 -18 c-32 -25 -44 -25 -23 0 10 11 24 20 33 20 10 0 7 -7 -10 -20z m55
-40 c-10 -11 -23 -20 -28 -20 -6 0 -2 9 8 20 10 11 23 20 28 20 6 0 2 -9 -8
-20z m135 8 c0 -5 -6 -8 -12 -6 -7 1 -22 -3 -33 -9 -16 -9 -25 -7 -43 7 l-23
19 55 -1 c31 -1 56 -6 56 -10z m-256 -14 c9 -24 7 -27 -9 -10 -17 17 -19 26
-6 26 5 0 12 -7 15 -16z m160 -38 c-11 -14 -30 -29 -44 -32 -14 -4 -36 -16
-50 -28 -61 -53 -111 -87 -119 -81 -5 3 -12 -1 -15 -7 -2 -7 -4 1 -3 17 1 23
6 31 20 31 16 0 17 -2 2 -12 -13 -10 -13 -12 -1 -17 8 -3 17 1 20 9 3 8 18 19
33 25 17 7 23 13 15 16 -20 8 6 33 34 33 13 0 24 5 24 11 0 6 -9 8 -20 4 -11
-3 -28 -1 -37 5 -16 9 -15 10 7 9 46 -4 60 1 61 19 1 11 4 9 9 -8 7 -21 8 -22
9 -4 1 21 19 44 35 44 5 0 2 -8 -7 -18 -22 -24 -11 -36 12 -14 10 10 15 24 13
32 -4 12 -2 12 8 3 10 -9 8 -16 -6 -37z m-164 -9 c0 -6 -9 -2 -20 8 -11 10
-20 23 -20 28 0 6 9 2 20 -8 11 -10 20 -23 20 -28z m611 -51 c20 -9 45 -25 55
-35 41 -39 73 -80 76 -98 2 -10 10 -24 18 -31 8 -8 10 -11 4 -8 -7 3 -14 -1
-17 -9 -4 -8 -1 -12 6 -9 14 5 16 -8 17 -110 1 -38 -4 -74 -10 -80 -13 -13
-13 -29 1 -20 7 4 6 -2 -2 -17 -12 -23 -12 -23 -20 -4 -4 12 -1 29 7 42 16 25
19 57 5 48 -5 -3 -12 7 -14 22 -2 16 -3 9 -1 -14 2 -26 -1 -43 -7 -43 -6 0 -7
6 -3 13 5 9 4 9 -6 0 -10 -9 -10 -15 -2 -26 7 -8 9 -17 6 -20 -4 -4 1 -18 11
-33 13 -20 14 -29 5 -38 -8 -8 -9 -6 -4 8 5 13 4 17 -4 12 -7 -4 -12 -18 -12
-32 0 -14 4 -23 8 -20 5 3 9 -1 9 -9 0 -8 -4 -15 -9 -15 -4 0 -8 5 -8 11 0 5
-3 8 -8 5 -4 -2 -7 13 -7 34 0 22 3 33 7 27 5 -8 8 -6 8 6 0 9 -7 17 -15 17
-11 0 -15 -12 -16 -40 -2 -49 -1 -47 -24 -93 -13 -25 -21 -33 -27 -25 -5 9 -8
8 -8 -4 0 -10 4 -18 9 -18 5 0 16 -3 25 -6 9 -3 16 -1 16 6 0 6 -4 8 -10 5 -5
-3 -10 1 -10 9 0 9 5 16 10 16 6 0 10 -5 10 -11 0 -5 4 -8 9 -5 5 4 4 -7 -2
-23 -10 -28 -11 -29 -35 -13 -23 15 -26 15 -43 -7 -11 -13 -19 -32 -19 -43 0
-10 -4 -17 -9 -14 -5 3 -12 -2 -15 -11 -4 -10 -4 -14 1 -10 4 4 15 -7 25 -25
l18 -33 -2 50 c-2 39 0 50 12 51 8 1 19 2 24 3 6 0 1 8 -10 16 -19 16 -19 16
1 13 20 -3 32 -48 14 -48 -5 0 -9 -7 -9 -16 0 -8 -4 -13 -9 -10 -5 3 -8 -6 -8
-20 0 -28 -26 -61 -48 -61 -8 0 -15 7 -15 15 0 8 6 12 14 9 9 -4 13 0 11 11
-2 9 -4 20 -4 25 -1 4 -6 7 -12 7 -8 0 -8 -5 1 -15 8 -10 9 -15 2 -15 -6 0
-15 7 -20 17 -9 14 -10 14 -16 -5 -4 -12 -2 -31 4 -42 7 -12 9 -25 5 -28 -3
-3 -8 4 -12 16 -3 12 -9 22 -14 22 -14 0 -11 -23 7 -48 9 -13 13 -30 10 -38
-3 -8 -6 -18 -6 -22 -1 -4 -12 -13 -26 -20 -13 -7 -24 -17 -24 -23 0 -7 -10
-9 -25 -5 -25 6 -36 -8 -12 -17 6 -2 9 -8 5 -12 -4 -4 -14 0 -23 8 -14 15 -14
17 4 28 11 8 17 19 13 28 -5 13 -3 14 9 4 13 -10 15 -7 15 22 l0 34 -18 -27
c-10 -15 -18 -33 -18 -40 0 -7 -5 -10 -12 -6 -7 4 -8 3 -4 -4 4 -7 2 -12 -4
-12 -7 0 -10 -7 -7 -15 4 -8 2 -17 -3 -20 -6 -4 -10 -1 -10 5 0 6 -11 -1 -24
-17 -13 -15 -20 -31 -15 -34 5 -3 7 -13 3 -22 -3 -10 -1 -17 6 -17 7 0 9 -8 5
-21 -5 -15 -4 -19 5 -14 7 4 9 18 5 36 -4 19 -3 29 5 29 7 0 10 -7 6 -15 -3
-8 -2 -15 3 -15 5 0 11 8 14 18 2 9 8 26 12 37 6 18 5 18 -5 3 -11 -19 -36
-26 -25 -8 3 6 1 10 -5 10 -6 0 -8 5 -4 12 6 9 9 9 12 0 3 -10 7 -10 18 -1 11
9 15 8 20 -5 5 -13 9 -14 20 -5 20 16 17 6 -5 -19 -10 -12 -21 -19 -25 -15 -3
3 -6 1 -6 -6 0 -7 -9 -26 -21 -42 -17 -24 -24 -27 -40 -19 -10 6 -19 7 -19 3
0 -4 -8 1 -16 12 -15 19 -15 19 -9 -5 4 -16 -2 -40 -14 -65 -11 -22 -20 -33
-21 -25 0 8 7 28 15 43 10 20 11 34 4 50 l-10 22 5 -22 c2 -13 0 -26 -5 -29
-5 -3 -9 -1 -9 5 0 6 -7 8 -15 5 -8 -4 -15 -10 -15 -15 0 -4 7 -6 15 -3 8 4
15 1 15 -6 0 -8 -9 -11 -24 -8 -18 4 -23 1 -19 -9 4 -9 0 -13 -8 -11 -16 3
-69 -40 -69 -57 0 -6 -14 -16 -31 -22 -17 -7 -33 -21 -36 -32 -3 -11 -11 -17
-18 -15 -7 3 -16 1 -20 -5 -3 -6 -1 -11 5 -11 6 0 8 -5 5 -10 -4 -6 -11 -8
-16 -4 -11 7 -39 -14 -39 -29 0 -6 3 -7 7 -4 3 4 12 2 20 -5 15 -13 23 -7 27
18 2 10 9 20 16 22 7 3 10 0 6 -6 -3 -6 -1 -14 5 -18 8 -5 10 -2 5 7 -4 8 -1
5 8 -5 18 -22 14 -31 -17 -47 -19 -9 -19 -8 3 10 14 11 22 21 18 21 -3 0 -14
3 -24 7 -11 4 -15 3 -11 -4 4 -6 2 -13 -3 -15 -6 -2 -12 -13 -12 -24 -2 -16
-7 -20 -23 -16 -11 3 -26 12 -34 20 -12 12 -11 13 5 10 10 -2 22 -7 26 -13 4
-5 10 -7 13 -3 4 4 -5 14 -18 23 -21 13 -30 14 -47 5 l-22 -12 21 -14 c12 -9
21 -22 21 -31 0 -14 -4 -13 -20 5 -25 26 -43 28 -61 6 -8 -9 -32 -25 -54 -35
-22 -11 -30 -16 -17 -13 26 6 30 -11 5 -20 -10 -3 -25 -9 -33 -12 -13 -5 -13
-4 0 5 9 6 10 11 3 11 -6 0 -19 -7 -27 -16 -11 -10 -16 -11 -16 -3 0 7 -3 9
-6 6 -4 -4 -1 -13 5 -21 10 -12 18 -13 39 -3 15 6 30 16 34 22 5 6 8 5 8 -4 0
-11 3 -11 15 -1 11 9 18 10 28 1 8 -6 17 -9 20 -6 4 3 5 2 2 -2 -7 -8 -39 -14
-80 -14 l-30 0 30 -15 c25 -12 26 -13 5 -8 -14 3 -44 6 -67 7 -24 1 -37 4 -30
9 9 6 9 8 0 8 -24 0 -63 -20 -63 -33 0 -17 47 -40 55 -27 3 4 -7 12 -22 17
-22 8 -24 11 -10 16 9 3 17 2 17 -3 0 -6 6 -10 14 -10 8 0 16 -6 19 -12 4 -10
7 -10 18 0 11 10 11 12 -1 12 -7 0 -11 3 -8 6 4 3 15 1 26 -5 15 -8 22 -8 25
2 2 6 8 8 13 4 11 -10 -15 -27 -31 -21 -7 3 -15 -2 -19 -12 -5 -13 -9 -14 -20
-5 -9 8 -17 8 -20 2 -3 -5 -3 -11 1 -14 5 -2 3 -3 -3 -1 -7 1 -22 -5 -35 -13
-12 -9 -19 -12 -16 -6 4 6 -11 10 -39 11 -51 0 -66 8 -44 22 9 6 16 6 18 0 5
-14 69 -13 78 1 4 8 -1 9 -17 4 -19 -5 -21 -4 -9 4 9 7 10 11 3 11 -6 0 -15
-4 -18 -10 -3 -5 -11 -10 -17 -10 -6 0 -5 7 3 17 12 14 12 16 -1 8 -8 -5 -21
-10 -30 -11 -8 -1 -35 -10 -60 -19 -43 -16 -219 -25 -261 -14 -65 18 -123 85
-143 166 -15 59 -15 68 3 150 24 111 58 200 117 310 253 472 738 890 1129 973
60 13 175 6 216 -14z m-811 -138 c0 -5 10 -6 21 -3 12 4 27 8 33 9 6 1 17 5
24 10 8 5 18 4 24 -2 6 -6 6 -12 -3 -17 -8 -5 -10 -4 -5 3 4 7 3 12 -2 12 -5
0 -12 -10 -15 -22 -5 -18 -8 -19 -22 -8 -13 11 -19 11 -33 -4 -16 -17 -16 -18
6 -11 l24 7 -18 -28 -18 -27 -6 24 c-4 16 -8 20 -14 11 -4 -6 -4 -16 -1 -22 3
-5 1 -10 -6 -10 -7 0 -9 -3 -5 -7 3 -4 -8 -21 -25 -39 -25 -25 -36 -31 -49
-24 -10 5 -20 7 -24 5 -3 -3 -4 -2 -2 1 2 3 7 4 10 2 3 -1 12 6 21 17 16 20
16 19 10 -5 -5 -22 -4 -23 7 -10 8 8 20 21 28 29 13 11 12 12 -7 6 -14 -4 -23
-2 -23 4 0 6 8 11 18 11 16 0 52 49 52 71 0 16 -18 10 -23 -8 -2 -10 -4 -4 -3
13 1 21 5 30 14 27 6 -3 12 -9 12 -15z m-136 -33 c-7 -17 11 -21 19 -5 3 6 4
5 3 -2 -3 -16 -18 -20 -36 -8 -13 9 -13 11 0 20 20 13 20 13 14 -5z m96 -39
c0 -5 -14 -6 -31 -2 -26 5 -29 4 -20 -8 9 -10 8 -16 -3 -25 -13 -11 -14 -8
-12 16 2 15 4 28 5 29 6 6 61 -3 61 -10z m-138 -88 c-7 -7 -12 -8 -12 -2 0 14
12 26 19 19 2 -3 -1 -11 -7 -17z m48 8 c0 -8 -7 -17 -16 -20 -8 -3 -12 -11 -9
-17 5 -7 15 -3 29 10 24 23 36 26 36 12 0 -6 -13 -18 -29 -27 -16 -10 -34 -27
-40 -38 -9 -19 -10 -18 -10 11 -1 35 17 83 31 83 4 0 8 -6 8 -14z m-113 -76
c13 0 13 -3 3 -15 -16 -19 -31 -19 -24 0 4 8 -1 17 -10 21 -9 3 -13 11 -10 16
4 7 10 4 16 -6 5 -9 16 -16 25 -16z m59 -20 c0 -12 -4 -16 -9 -11 -5 5 -6 14
-3 20 10 15 12 14 12 -9z m-31 -10 c-3 -5 -1 -10 5 -10 8 0 8 -6 0 -20 -6 -11
-14 -19 -18 -16 -8 5 -26 -14 -30 -34 -4 -15 -34 -41 -41 -34 -3 2 4 11 15 20
18 15 18 15 -3 9 -14 -4 -23 -2 -23 4 0 6 9 11 21 11 13 0 25 11 34 33 7 17
17 35 21 40 11 11 26 9 19 -3z m-58 -54 c10 -9 -40 -7 -56 3 -9 6 -4 8 18 6
17 -1 34 -5 38 -9z m-52 -16 c3 -5 2 -10 -4 -10 -5 0 -13 5 -16 10 -3 6 -2 10
4 10 5 0 13 -4 16 -10z m-105 -20 c0 -5 -5 -10 -11 -10 -5 0 -7 5 -4 10 3 6 8
10 11 10 2 0 4 -4 4 -10z m117 -14 c-3 -7 0 -19 6 -25 8 -8 6 -11 -7 -11 -9 0
-15 -4 -12 -8 3 -5 -1 -9 -9 -9 -11 0 -12 4 -4 14 6 7 8 13 5 13 -4 0 -2 9 4
20 12 23 25 27 17 6z m-74 -23 c-21 -8 -14 -25 7 -18 23 7 28 -10 5 -19 -21
-8 -59 25 -42 36 6 4 19 7 27 7 10 0 11 -2 3 -6z m1297 -40 c-11 -17 -11 -17
-6 1 6 16 4 17 -9 6 -18 -15 -20 1 -3 18 18 18 33 -2 18 -25z m-1299 -33 c6 0
8 4 4 9 -6 11 33 26 42 17 4 -3 -1 -6 -10 -6 -9 0 -17 -6 -17 -14 0 -7 -9 -16
-20 -19 -12 -3 -18 -11 -15 -19 3 -8 0 -20 -7 -26 -11 -9 -14 -1 -14 42 1 48
2 52 14 35 7 -10 18 -19 23 -19z m-160 -48 c-12 -23 -53 -38 -44 -16 3 8 12
14 19 14 8 0 17 7 21 15 3 9 8 14 10 11 3 -2 0 -13 -6 -24z m69 -42 c-13 -8
-13 -10 2 -10 9 0 19 5 21 10 3 6 4 5 3 -2 -1 -6 -13 -15 -27 -19 -19 -5 -25
-2 -25 10 0 10 9 18 21 19 16 1 17 -1 5 -8z m-111 -40 c0 -10 -3 -8 -9 5 -12
27 -12 43 0 25 5 -8 9 -22 9 -30z m-19 0 c0 -9 -31 -30 -44 -30 -3 0 2 9 11
20 19 21 33 26 33 10z m140 6 c0 -3 -4 -8 -10 -11 -5 -3 -10 -1 -10 4 0 6 5
11 10 11 6 0 10 -2 10 -4z m1225 -36 c3 -5 1 -10 -4 -10 -6 0 -11 5 -11 10 0
6 2 10 4 10 3 0 8 -4 11 -10z m-1323 -19 c-4 -12 0 -11 18 4 13 11 20 14 16 8
-4 -7 -3 -13 3 -13 5 0 12 6 14 13 3 6 6 8 6 2 0 -5 -8 -21 -19 -35 l-19 -25
-20 22 c-24 26 -27 40 -7 40 9 0 12 -7 8 -16z m-137 -131 c3 -5 -1 -10 -10
-10 -9 0 -13 5 -10 10 3 6 8 10 10 10 2 0 7 -4 10 -10z m-49 -74 c-2 -6 -5 -3
-5 7 -1 21 -21 23 -21 1 0 -8 -4 -12 -10 -9 -6 4 -3 16 7 32 l17 25 8 -23 c5
-12 7 -27 4 -33z m1444 30 c0 -2 -7 -7 -16 -10 -8 -3 -12 -2 -9 4 6 10 25 14
25 6z m-1350 -46 c0 -5 -5 -10 -11 -10 -5 0 -7 5 -4 10 3 6 8 10 11 10 2 0 4
-4 4 -10z m-79 -41 c-9 -23 -9 -22 -8 8 1 18 6 28 10 24 4 -4 3 -18 -2 -32z
m48 23 c6 -12 6 -23 0 -33 -9 -12 -10 -12 -6 1 2 8 -2 23 -11 33 -9 10 -11 17
-4 17 6 0 16 -8 21 -18z m-38 -76 l-21 -20 0 24 c0 18 3 21 9 12 6 -10 11 -4
16 20 7 30 8 31 12 9 3 -15 -3 -31 -16 -45z m1275 -18 c-1 -7 -14 -26 -28 -41
-23 -25 -26 -26 -21 -7 3 12 15 26 27 30 11 5 15 9 9 9 -18 1 -16 21 1 21 8 0
13 -6 12 -12z m-96 -38 c-11 -7 -11 -10 -2 -10 7 0 10 -5 6 -11 -4 -8 -9 -7
-15 2 -9 15 -3 29 14 29 7 0 6 -4 -3 -10z m-44 -33 c-14 -5 -26 -13 -26 -18 0
-12 17 -12 25 1 3 6 14 10 23 10 24 0 -16 -27 -48 -32 -25 -4 -25 -4 3 -9 20
-5 34 0 52 17 13 12 27 20 29 16 2 -4 -7 -17 -20 -29 -13 -12 -24 -19 -24 -16
0 3 -7 0 -15 -7 -8 -7 -13 -16 -10 -19 2 -4 -1 -8 -8 -8 -7 0 -22 -3 -34 -7
-14 -5 -23 -3 -23 3 0 6 8 11 17 11 22 0 14 6 -21 14 -25 6 -28 5 -18 -7 10
-11 9 -17 -3 -27 -9 -7 -19 -9 -23 -5 -4 4 -2 10 5 12 7 2 10 10 7 18 -3 7 4
18 15 24 25 14 34 14 26 1 -3 -5 -2 -10 2 -10 5 0 14 15 21 34 7 19 21 36 33
39 14 4 18 10 13 19 -5 9 -2 9 10 -2 17 -13 17 -15 -8 -23z m-1190 5 c1 -7 0
-8 -3 -2 -8 17 -23 11 -16 -7 6 -16 5 -16 -10 -4 -9 7 -17 17 -17 21 0 13 43
6 46 -8z m-126 -67 c5 3 15 -2 24 -11 15 -15 59 -12 53 4 -1 4 2 7 8 7 5 0 10
-5 11 -12 1 -7 -1 -12 -4 -12 -25 3 -52 -16 -52 -37 0 -13 -5 -24 -11 -24 -7
0 -9 11 -6 27 3 17 -1 32 -11 42 -14 15 -15 14 -9 -8 3 -13 1 -29 -6 -36 -9
-9 -12 -2 -12 32 0 24 2 38 3 33 2 -6 7 -8 12 -5z m-21 -35 c0 -10 -3 -8 -9 5
-12 27 -12 43 0 25 5 -8 9 -22 9 -30z m94 -24 c-10 -13 -20 -19 -22 -13 -2 5
4 16 15 24 26 19 27 16 7 -11z m1162 -8 l-7 -23 21 23 c12 12 25 22 28 22 4 0
-4 -11 -17 -25 -25 -26 -48 -20 -37 9 10 25 19 19 12 -6z m-1202 -28 c20 -1
20 -2 4 -11 -22 -13 -37 -3 -36 24 1 17 2 18 6 5 2 -10 14 -18 26 -18z m1117
20 c0 -5 -4 -10 -10 -10 -5 0 -10 5 -10 10 0 6 5 10 10 10 6 0 10 -4 10 -10z
m-1110 -49 c0 7 3 9 6 6 4 -4 1 -13 -6 -21 -10 -13 -14 -13 -26 -1 -20 20 -17
27 6 15 15 -8 20 -8 20 1z m-10 -52 c0 -5 -7 -6 -15 -3 -8 4 -15 13 -15 21 0
13 3 13 15 3 8 -7 15 -16 15 -21z m1034 12 c11 -12 14 -21 7 -26 -15 -8 -33 4
-25 17 4 6 0 14 -7 19 -8 5 -9 9 -3 9 6 0 19 -9 28 -19z m76 4 c0 -2 -6 -8
-13 -14 -10 -8 -14 -7 -14 2 0 8 6 14 14 14 7 0 13 -1 13 -2z m-118 -27 c-7
-7 -12 -8 -12 -2 0 6 3 14 7 17 3 4 9 5 12 2 2 -3 -1 -11 -7 -17z m-1011 -39
c-9 -23 -10 -22 -10 11 -1 23 2 31 9 24 7 -7 7 -19 1 -35z m1079 26 c-7 -8
-17 -15 -23 -15 -6 0 -2 7 9 15 25 19 30 19 14 0z m-1160 -46 c0 -5 -4 -9 -10
-9 -5 0 -10 7 -10 16 0 8 5 12 10 9 6 -3 10 -10 10 -16z m30 8 c0 -11 -41 -49
-46 -44 -4 4 4 15 17 26 25 21 29 23 29 18z m30 -11 c0 -8 -4 -18 -10 -21 -5
-3 -10 -14 -10 -23 0 -15 2 -15 10 -2 6 9 10 10 10 3 0 -6 -4 -14 -10 -18 -5
-3 -7 -13 -4 -23 5 -15 4 -15 -5 -2 -9 12 -10 6 -5 -23 6 -34 4 -39 -15 -44
-19 -5 -20 -7 -6 -17 10 -7 13 -18 9 -29 -7 -18 -34 -24 -34 -6 0 5 5 7 10 4
6 -3 10 1 10 10 0 9 -4 14 -9 10 -6 -3 -9 21 -8 59 1 35 5 62 9 60 3 -2 8 1
11 8 2 7 3 3 1 -9 -2 -11 -7 -29 -11 -39 -4 -12 -3 -15 5 -10 6 4 14 29 18 56
4 28 11 50 16 50 5 0 6 5 3 10 -3 6 -1 10 4 10 6 0 11 -6 11 -14z m-80 -77 c0
-17 -4 -28 -10 -24 -6 4 -10 -5 -10 -19 0 -14 -5 -26 -11 -26 -15 0 -3 82 14
92 17 11 17 11 17 -23z m773 -26 c-7 -2 -21 -2 -30 0 -10 3 -4 5 12 5 17 0 24
-2 18 -5z m-198 -15 c16 1 17 -1 5 -8 -10 -7 -11 -10 -2 -10 6 0 12 -4 12 -10
0 -5 -7 -10 -15 -10 -8 0 -15 5 -15 11 0 5 -5 7 -10 4 -14 -9 -42 14 -34 27 3
5 13 6 23 2 9 -4 25 -6 36 -6z m255 -3 c0 -8 -5 -15 -11 -15 -5 0 -7 4 -4 10
4 6 -1 7 -11 3 -12 -4 -15 -3 -10 5 10 17 36 15 36 -3z m-47 -11 c14 -5 16 -9
6 -15 -7 -4 -19 -3 -26 2 -6 6 -37 12 -68 14 -31 2 -60 7 -63 11 -8 8 126 -2
151 -12z m-103 -14 c0 -7 14 -9 38 -5 32 5 34 4 12 -5 -29 -13 -110 -3 -89 11
19 12 39 11 39 -1z m-667 -82 c8 -5 7 -8 -4 -8 -9 0 -19 10 -23 23 -5 18 -8
20 -16 7 -7 -11 -10 -6 -10 20 0 25 3 31 10 20 7 -12 10 -11 17 5 6 16 9 12
11 -20 2 -22 9 -43 15 -47z m-33 -2 c0 -3 -4 -8 -10 -11 -5 -3 -10 -1 -10 4 0
6 5 11 10 11 6 0 10 -2 10 -4z m51 -29 c-6 -6 -11 -38 -11 -71 0 -41 -3 -56
-9 -46 -6 8 -8 26 -7 40 2 14 1 17 -1 7 -2 -9 -9 -15 -14 -12 -5 4 -6 17 -3
31 4 14 1 31 -6 39 -10 12 -9 15 4 15 10 0 16 -9 17 -22 0 -14 2 -17 6 -8 11
35 28 61 31 50 2 -6 -1 -17 -7 -23z m6 -114 c-2 -21 -4 -6 -4 32 0 39 2 55 4
38 2 -18 2 -50 0 -70z"/>
<path d="M3130 4136 c4 -4 16 -4 26 2 16 9 14 10 -8 9 -15 -1 -23 -6 -18 -11z"/>
<path d="M3074 4105 c-10 -8 -14 -14 -9 -14 6 0 19 6 29 14 11 8 15 15 10 15
-6 0 -19 -7 -30 -15z"/>
<path d="M2940 4060 c-9 -6 -10 -10 -3 -10 6 0 15 5 18 10 8 12 4 12 -15 0z"/>
<path d="M2825 3980 c-3 -6 1 -7 9 -4 18 7 21 14 7 14 -6 0 -13 -4 -16 -10z"/>
<path d="M2660 3870 c0 -5 4 -10 9 -10 6 0 13 5 16 10 3 6 -1 10 -9 10 -9 0
-16 -4 -16 -10z"/>
<path d="M3026 3816 c-5 -22 -12 -26 -41 -26 -18 0 -37 5 -41 11 -4 8 3 9 24
4 18 -4 33 -2 37 5 13 21 -3 22 -62 4 -32 -10 -61 -17 -65 -16 -5 1 -8 -2 -8
-8 0 -5 -11 -10 -24 -10 -14 0 -28 -5 -31 -10 -4 -6 -10 -8 -15 -5 -4 3 -14
-2 -21 -11 -13 -15 -63 -45 -70 -41 -3 1 -1 -2 4 -8 5 -6 14 -5 25 3 9 7 25
15 35 18 9 4 17 13 17 21 0 11 3 11 14 1 10 -9 11 -18 4 -32 -7 -12 -6 -22 2
-30 8 -8 10 -7 5 7 -8 19 10 24 19 5 3 -7 3 2 0 21 -3 19 -7 38 -9 42 -3 4 9
9 25 11 23 4 27 2 19 -9 -6 -7 -15 -10 -20 -7 -5 3 -9 -2 -9 -10 0 -9 6 -16
14 -16 29 0 26 -20 -5 -39 -24 -15 -36 -17 -46 -9 -9 7 -13 7 -13 -1 0 -6 -7
-11 -16 -11 -8 0 -12 -4 -9 -10 3 -5 -3 -10 -14 -10 -12 0 -21 -4 -21 -9 0 -5
-15 -19 -32 -31 l-33 -22 29 25 c15 13 23 26 17 28 -6 2 9 15 34 29 46 25 57
40 30 40 -9 0 -18 -7 -22 -16 -3 -8 -12 -13 -20 -10 -8 3 -11 1 -8 -4 4 -6 -8
-13 -24 -16 -25 -5 -29 -9 -20 -20 14 -17 -2 -19 -18 -3 -16 16 5 38 29 31 10
-2 18 0 18 5 0 6 -10 9 -22 8 -39 -5 -81 -33 -95 -62 -12 -25 -12 -26 -7 -3 7
25 7 25 -15 6 -11 -11 -21 -25 -21 -32 0 -7 -6 -11 -13 -8 -15 5 -54 -33 -44
-43 4 -4 14 2 21 13 8 10 18 15 23 11 13 -14 -29 -38 -58 -33 -21 3 -34 -5
-65 -39 -21 -24 -43 -41 -49 -38 -5 3 -5 0 2 -7 6 -7 9 -18 6 -25 -2 -8 1 -23
7 -35 11 -20 10 -21 -9 -10 -17 8 -20 17 -15 38 7 27 7 27 -14 9 -11 -11 -18
-25 -16 -32 3 -7 0 -16 -7 -21 -7 -4 -10 -3 -5 4 3 6 2 14 -4 17 -6 4 -9 3 -8
-2 2 -4 -10 -21 -26 -36 -28 -28 -30 -51 -1 -27 12 10 15 10 15 -4 0 -10 -9
-16 -24 -16 -17 0 -27 -7 -32 -22 -3 -12 -13 -28 -21 -36 -12 -12 -13 -11 -10
9 2 13 2 18 0 12 -3 -7 -9 -13 -14 -13 -5 0 -9 -7 -9 -15 0 -8 5 -15 12 -15 9
0 8 -3 -1 -12 -11 -11 -14 -10 -18 0 -6 15 -59 -39 -69 -70 -3 -10 -9 -18 -14
-18 -5 0 -4 -11 2 -25 10 -23 12 -23 24 -7 7 9 11 26 8 37 -2 11 0 27 6 35 8
13 11 12 25 -5 14 -19 15 -19 5 7 -6 18 -6 29 0 33 6 4 10 -2 10 -12 0 -10 5
-25 10 -33 8 -12 9 -9 6 10 -3 22 0 25 24 25 16 1 26 -3 24 -7 -3 -4 -14 -8
-26 -8 -17 0 -18 -2 -8 -15 12 -15 4 -20 -22 -16 -5 0 -8 -4 -8 -10 0 -8 -5
-7 -15 1 -9 7 -19 9 -23 5 -4 -4 -1 -10 6 -12 10 -4 10 -8 1 -19 -7 -8 -9 -17
-5 -21 3 -4 13 2 21 13 8 10 15 14 15 8 0 -6 -11 -21 -26 -35 -22 -21 -24 -21
-18 -4 7 18 6 19 -10 6 -13 -11 -19 -12 -25 -3 -5 9 -11 5 -19 -12 -12 -27 -5
-41 13 -26 9 8 14 6 19 -6 4 -11 2 -15 -8 -11 -23 9 -59 -38 -53 -69 4 -23
-25 -94 -40 -94 -2 0 -1 5 2 10 4 6 1 9 -6 8 -6 -2 -14 3 -16 11 -4 9 0 11 16
6 13 -4 21 -2 21 5 0 6 -4 9 -9 5 -5 -3 -12 4 -16 15 -3 11 -14 20 -23 20 -12
0 -13 -3 -4 -12 17 -17 15 -31 -4 -24 -18 7 -59 -74 -56 -114 1 -18 -1 -21 -7
-11 -12 19 -45 -91 -37 -122 3 -11 1 -26 -5 -33 -7 -8 -7 -14 0 -18 6 -4 7
-14 4 -23 -6 -15 -7 -14 -13 2 -6 17 -7 17 -12 -3 -4 -13 -2 -20 4 -16 6 4 7
-10 3 -39 -4 -24 -3 -47 2 -50 5 -3 8 8 6 26 -3 31 -3 31 7 7 6 -14 9 -33 6
-42 -2 -10 0 -18 4 -18 5 0 11 12 13 28 4 25 4 25 6 -5 0 -19 -4 -33 -11 -33
-6 0 -4 -7 5 -18 10 -10 17 -23 17 -28 0 -5 20 -18 43 -29 112 -53 328 0 520
127 32 21 60 38 62 38 15 0 266 214 336 286 184 190 358 446 398 584 7 25 17
50 21 55 25 32 41 215 18 215 -6 0 -8 3 -5 7 4 3 -1 15 -10 26 -17 19 -17 20
0 14 22 -8 22 2 0 33 -37 53 -62 68 -101 63 -34 -4 -95 5 -133 21 -12 5 -18 0
-23 -18z m184 -14 c-6 -2 -10 -11 -11 -20 0 -11 -2 -12 -6 -4 -5 14 -60 17
-65 3 -2 -6 -17 -6 -38 -1 l-35 8 35 2 c32 2 33 3 10 9 -15 5 3 7 47 7 40 -1
68 -2 63 -4z m37 -27 c8 -8 13 -19 11 -25 -2 -5 -14 2 -27 15 -25 27 -10 36
16 10z m-222 -22 c-21 -7 -40 -11 -43 -9 -2 3 7 8 22 12 14 3 26 10 26 15 0 5
8 5 17 2 12 -5 7 -10 -22 -20z m-70 -10 c-8 -7 -23 -13 -35 -13 -12 0 -18 -4
-15 -10 3 -5 2 -10 -2 -10 -10 0 -34 36 -28 42 3 2 24 4 49 4 37 1 42 -2 31
-13z m-332 -126 c-9 -45 -63 -62 -63 -19 0 14 2 14 9 3 11 -17 30 -6 42 26 12
32 19 27 12 -10z m41 -8 c-8 -14 -34 -11 -34 4 0 8 3 17 7 20 9 9 34 -13 27
-24z m-11 -26 c-7 -2 -19 -2 -25 0 -7 3 -2 5 12 5 14 0 19 -2 13 -5z m-43 -23
c-19 -5 -38 -6 -42 -4 -5 3 -8 1 -8 -5 0 -5 -3 -18 -7 -28 -6 -17 -4 -16 18 2
l24 20 -19 -22 c-15 -19 -22 -21 -40 -11 -18 10 -19 9 -8 -4 10 -13 9 -18 -5
-29 -16 -13 -17 -12 -4 4 7 9 9 17 4 17 -16 0 -32 -22 -26 -39 3 -11 2 -12 -4
-4 -7 10 -13 8 -26 -7 -9 -11 -14 -20 -10 -20 3 0 -2 -9 -12 -20 -12 -14 -22
-17 -30 -10 -6 5 -15 7 -18 3 -4 -3 -6 6 -5 20 1 15 8 29 16 32 7 3 10 9 7 15
-3 5 0 10 8 10 8 0 23 11 33 25 11 15 21 20 25 13 9 -14 66 11 72 32 3 10 18
16 48 17 44 1 44 1 9 -7z m374 -70 c44 -16 94 -79 81 -100 -3 -6 -1 -10 5 -10
6 0 8 -5 4 -12 -5 -7 -7 -29 -6 -48 1 -28 0 -31 -7 -15 -9 19 -10 19 -10 -2
-1 -12 4 -25 9 -28 6 -3 10 -12 10 -18 0 -8 -3 -8 -9 2 -7 11 -10 11 -17 0 -9
-14 -14 -42 -15 -73 0 -10 -3 -16 -6 -13 -6 7 -23 -10 -41 -41 -7 -13 -8 -22
-2 -22 5 0 10 5 10 11 0 5 5 7 11 3 8 -5 8 -9 -1 -14 -8 -5 -9 -13 -4 -21 6
-11 3 -10 -10 1 -16 13 -20 12 -32 -5 -16 -22 -18 -45 -4 -45 6 0 2 -8 -7 -18
-14 -14 -22 -16 -32 -8 -11 8 -13 8 -8 -1 4 -6 3 -14 -3 -18 -5 -3 -10 -11
-10 -17 0 -6 7 -5 18 3 14 11 15 11 5 -1 -16 -17 -46 -23 -37 -7 4 7 -9 -6
-29 -28 -20 -22 -36 -44 -37 -48 0 -5 -4 -6 -9 -2 -5 3 -13 0 -17 -6 -4 -8 -3
-9 4 -5 7 4 12 3 12 -2 0 -6 -7 -13 -15 -16 -13 -5 -14 -10 -4 -27 6 -13 7
-19 1 -15 -6 3 -12 1 -15 -6 -2 -7 -2 -3 0 10 5 30 -3 28 -54 -14 -63 -52 -84
-76 -79 -91 3 -7 -4 -17 -14 -23 -21 -11 -29 3 -10 15 13 8 13 25 0 25 -6 0
-9 -5 -8 -11 2 -6 -5 -13 -15 -14 -10 -2 -26 -10 -35 -18 -10 -8 -24 -16 -31
-19 -12 -3 -12 -6 2 -11 9 -3 17 -2 17 3 0 6 7 10 15 10 8 0 15 -5 15 -11 0
-5 -4 -7 -10 -4 -5 3 -10 1 -10 -5 0 -7 -7 -10 -15 -6 -8 3 -15 0 -15 -6 0 -7
-6 -4 -13 7 -10 13 -16 15 -21 6 -4 -6 -12 -9 -17 -6 -12 8 -12 -8 1 -21 6 -6
4 -10 -8 -10 -9 -1 -26 -5 -36 -9 -13 -6 -17 -5 -12 3 3 6 2 14 -4 17 -6 4
-10 3 -9 -2 4 -21 -3 -31 -21 -36 -11 -3 -22 -1 -25 4 -3 4 -12 6 -20 2 -8 -3
-15 0 -15 6 0 6 -7 11 -15 11 -23 0 -75 41 -91 72 -64 123 96 415 348 635 68
60 227 149 293 166 35 8 103 7 129 -3z m-634 -132 c0 -6 7 -8 15 -4 8 3 15 1
15 -4 0 -6 -7 -10 -16 -10 -8 0 -13 -4 -10 -9 4 -5 -2 -8 -11 -6 -10 2 -21 4
-24 4 -4 1 -9 9 -11 19 -4 12 2 17 19 18 12 1 23 -3 23 -8z m-20 -58 c0 -5 -2
-10 -4 -10 -3 0 -8 5 -11 10 -3 6 -1 10 4 10 6 0 11 -4 11 -10z m-65 -20 c4
-6 11 -8 16 -5 5 4 9 1 9 -4 0 -15 -13 -14 -30 2 -12 10 -12 9 -1 -6 8 -9 11
-21 7 -24 -4 -4 -12 -1 -17 7 -8 12 -10 10 -6 -8 3 -12 1 -20 -3 -17 -5 3 -10
-1 -13 -7 -2 -7 -8 -9 -13 -5 -5 4 -3 11 3 15 6 4 15 20 18 35 7 28 19 35 30
17z m786 -71 c-9 -23 -9 -22 -8 8 1 18 6 28 10 24 4 -4 3 -18 -2 -32z m-27
-64 c-6 -16 -24 -21 -24 -7 0 11 11 22 21 22 5 0 6 -7 3 -15z m-52 -87 c-15
-15 -24 -6 -16 16 5 12 10 14 17 7 8 -8 8 -14 -1 -23z m-886 -60 c0 -17 -36
-52 -36 -36 0 9 28 48 35 48 1 0 2 -6 1 -12z m792 -73 c-26 -30 -29 -31 -22
-7 5 16 5 16 -9 0 -8 -10 -18 -18 -22 -18 -5 0 0 9 10 20 10 11 21 17 26 15 4
-3 10 -1 14 5 3 5 10 10 16 10 5 0 -1 -11 -13 -25z m-888 -65 c0 -5 -5 -10
-11 -10 -7 0 -9 -10 -5 -24 3 -14 1 -28 -4 -31 -6 -4 -8 -11 -5 -16 4 -5 2 -9
-2 -9 -5 0 -9 -10 -10 -21 -1 -12 -11 -31 -21 -43 -21 -23 -40 -82 -23 -71 7
4 8 0 4 -10 -5 -14 -8 -14 -15 -3 -7 9 -8 1 -4 -22 4 -27 3 -31 -5 -18 -10 18
-8 62 4 74 10 10 9 54 -2 54 -4 0 -6 12 -3 28 l6 27 6 -30 7 -30 11 28 c7 16
16 26 20 23 4 -2 8 4 8 15 0 10 -6 19 -13 19 -6 0 -15 5 -19 12 -5 7 -3 8 5 4
8 -5 12 -3 10 5 -4 31 4 42 10 14 6 -30 22 -37 30 -14 2 7 -1 9 -8 5 -15 -10
-14 21 2 39 14 17 27 19 27 5z m740 -61 c0 -5 5 -7 12 -3 7 4 8 3 4 -5 -6 -9
-11 -9 -21 -1 -9 8 -15 6 -20 -7 -5 -10 -7 -22 -6 -28 2 -5 -1 -6 -5 -2 -4 4
-14 -3 -21 -15 -8 -15 -12 -18 -13 -8 0 16 49 80 63 80 4 0 7 -5 7 -11z m-143
-103 c0 -8 -6 -12 -15 -9 -11 5 -11 7 0 14 7 5 13 9 14 9 0 0 1 -6 1 -14z
m-710 -28 c-3 -8 -6 -5 -6 6 -1 11 2 17 5 13 3 -3 4 -12 1 -19z m623 -28 c0
-5 -2 -10 -4 -10 -3 0 -8 5 -11 10 -3 6 -1 10 4 10 6 0 11 -4 11 -10z m-605
-83 c6 -5 3 -7 -8 -3 -14 5 -16 1 -12 -22 5 -25 5 -25 -4 -4 -10 22 -4 59 8
45 3 -4 11 -12 16 -16z"/>
<path d="M2458 3484 c-17 -9 -28 -23 -28 -35 0 -11 -4 -18 -9 -14 -17 10 -21
-12 -6 -25 8 -7 16 -10 16 -6 1 3 3 9 4 14 2 4 6 17 10 30 4 12 13 22 21 22
13 0 29 18 23 25 -2 2 -16 -3 -31 -11z"/>
<path d="M2875 3450 c2 -11 0 -18 -6 -15 -5 4 -9 1 -9 -5 0 -6 -5 -8 -11 -4
-8 4 -7 9 2 15 7 4 10 11 6 16 -5 4 -12 1 -16 -6 -6 -8 -14 -10 -22 -5 -12 6
-12 5 -1 -8 10 -12 10 -17 0 -25 -19 -14 -49 -26 -76 -29 -19 -2 -21 0 -12 11
10 12 8 13 -10 10 -32 -6 -50 -24 -49 -49 0 -20 1 -21 9 -1 5 11 9 16 9 11 1
-5 7 -3 14 3 8 6 17 8 20 5 4 -4 -15 -20 -41 -37 -26 -17 -59 -41 -73 -54 -23
-21 -27 -22 -33 -8 -3 9 -2 14 2 11 4 -2 14 -1 22 5 12 7 10 9 -8 9 -13 0 -36
-14 -53 -32 -28 -32 -39 -55 -19 -43 6 3 10 2 10 -3 0 -15 -28 -23 -36 -10 -5
7 -2 8 6 3 9 -5 11 -4 6 4 -12 19 -27 2 -16 -19 7 -14 5 -24 -11 -42 -11 -12
-18 -17 -14 -11 12 25 14 53 3 59 -7 4 -8 2 -4 -4 4 -7 3 -12 -3 -12 -6 0 -8
-7 -5 -15 5 -11 2 -13 -10 -9 -9 3 -16 1 -16 -6 0 -6 5 -8 10 -5 6 3 10 2 10
-4 0 -5 -5 -13 -10 -16 -6 -4 -8 -10 -6 -14 3 -4 -9 -23 -27 -42 -18 -19 -32
-40 -32 -46 0 -7 -4 -13 -9 -12 -13 1 -47 -61 -40 -73 4 -7 2 -8 -4 -4 -14 8
-16 33 -4 38 17 7 52 77 42 83 -6 4 -10 3 -9 -2 3 -18 -2 -30 -20 -49 -10 -11
-26 -37 -36 -57 -15 -32 -15 -40 -4 -54 12 -15 12 -16 -2 -11 -12 5 -21 -4
-34 -32 -17 -39 -13 -65 8 -54 7 3 4 -1 -5 -9 -10 -8 -18 -23 -18 -33 0 -16 2
-17 11 -4 8 12 10 10 8 -10 -3 -53 1 -61 38 -77 78 -32 207 13 354 125 255
193 427 484 362 612 -16 31 -22 35 -53 33 -26 -2 -30 0 -16 5 18 8 18 9 2 15
-25 10 -38 9 -31 -3 3 -5 -1 -10 -9 -10 -9 0 -16 5 -16 10 0 6 -4 10 -9 10 -6
0 -8 -9 -6 -20z m-165 -65 c-7 -9 -15 -13 -19 -10 -3 3 1 10 9 15 21 14 24 12
10 -5z m-140 -115 c0 -5 -2 -10 -4 -10 -3 0 -8 5 -11 10 -3 6 -1 10 4 10 6 0
11 -4 11 -10z m-20 -26 c0 -8 -5 -12 -10 -9 -6 4 -8 11 -5 16 9 14 15 11 15
-7z m-239 -317 c-1 -12 -15 -9 -19 4 -3 6 1 10 8 8 6 -3 11 -8 11 -12z m-35
-71 c-12 -18 -12 -26 -3 -29 7 -3 5 -6 -5 -6 -22 -1 -23 8 -2 37 21 30 30 28
10 -2z"/>
<path d="M2787 3425 c3 -8 9 -12 14 -9 12 7 11 11 -5 17 -10 4 -13 1 -9 -8z"/>
<path d="M2762 3404 c-7 -8 -8 -14 -3 -14 10 0 25 19 20 25 -2 1 -10 -3 -17
-11z"/>
<path d="M2637 3350 c-9 -11 -12 -20 -7 -20 6 0 13 -1 17 -2 3 -2 8 7 9 20 5
27 3 27 -19 2z"/>
<path d="M2396 3125 c-8 -9 -13 -22 -10 -30 4 -8 1 -15 -5 -15 -6 0 -11 -6
-11 -12 0 -16 54 41 56 59 3 17 -11 16 -30 -2z"/>
<path d="M2916 3041 c-4 -5 -2 -12 3 -15 5 -4 12 -2 15 3 4 5 2 12 -3 15 -5 4
-12 2 -15 -3z"/>
<path d="M2368 2613 c7 -3 16 -2 19 1 4 3 -2 6 -13 5 -11 0 -14 -3 -6 -6z"/>
<path d="M2333 3345 c0 -8 4 -12 9 -9 5 3 6 10 3 15 -9 13 -12 11 -12 -6z"/>
<path d="M1926 2723 c-6 -14 -5 -15 5 -6 7 7 10 15 7 18 -3 3 -9 -2 -12 -12z"/>
<path d="M3088 3833 c6 -2 18 -2 25 0 6 3 1 5 -13 5 -14 0 -19 -2 -12 -5z"/>
<path d="M3135 3830 c-4 -6 7 -10 25 -10 18 0 29 4 25 10 -3 6 -15 10 -25 10
-10 0 -22 -4 -25 -10z"/>
<path d="M3379 3655 c-7 -14 5 -92 12 -80 4 6 4 28 0 50 -4 22 -9 36 -12 30z"/>
<path d="M3277 3333 c-4 -3 -7 -11 -7 -17 0 -6 5 -5 12 2 6 6 9 14 7 17 -3 3
-9 2 -12 -2z"/>
<path d="M2050 3078 c-31 -46 -33 -51 -21 -44 6 4 11 4 11 -1 -1 -14 -27 -43
-38 -43 -6 0 -10 -9 -9 -20 1 -11 5 -20 9 -20 4 0 4 -7 1 -17 -4 -11 -3 -14 5
-9 7 4 12 2 12 -4 0 -6 5 -8 11 -4 7 4 8 9 1 13 -15 9 -9 48 11 71 20 23 22
37 6 42 -8 3 -6 10 5 21 10 9 16 22 14 27 -2 6 -10 0 -18 -12z"/>
<path d="M3116 3061 c-4 -5 -1 -11 6 -13 16 -6 20 -41 5 -50 -6 -4 -15 -2 -20
5 -5 7 -6 3 -2 -10 4 -15 0 -25 -12 -32 -10 -6 -13 -10 -8 -10 14 0 49 30 62
53 17 31 -14 86 -31 57z"/>
<path d="M2955 2850 c3 -5 8 -10 11 -10 2 0 4 5 4 10 0 6 -5 10 -11 10 -5 0
-7 -4 -4 -10z"/>
<path d="M2956 2819 c20 -23 24 -23 24 -5 0 7 -9 16 -21 19 -20 5 -20 5 -3
-14z"/>
<path d="M2325 2300 c-3 -6 1 -7 9 -4 18 7 21 14 7 14 -6 0 -13 -4 -16 -10z"/>
<path d="M2195 3461 c-3 -5 -1 -12 5 -16 5 -3 10 1 10 9 0 18 -6 21 -15 7z"/>
<path d="M1875 3080 c-3 -5 -1 -10 4 -10 6 0 11 5 11 10 0 6 -2 10 -4 10 -3 0
-8 -4 -11 -10z"/>
<path d="M2806 2623 c-6 -14 -5 -15 5 -6 7 7 10 15 7 18 -3 3 -9 -2 -12 -12z"/>
<path d="M1470 2268 c0 -9 -6 -19 -12 -21 -10 -4 -10 -6 0 -6 14 -1 28 26 18
36 -3 4 -6 -1 -6 -9z"/>
<path d="M1960 2260 c0 -5 5 -10 11 -10 5 0 7 5 4 10 -3 6 -8 10 -11 10 -2 0
-4 -4 -4 -10z"/>
<path d="M3756 4163 c-6 -14 -5 -15 5 -6 7 7 10 15 7 18 -3 3 -9 -2 -12 -12z"/>
<path d="M2478 3892 c-28 -17 -36 -32 -18 -32 6 0 10 5 10 10 0 6 6 10 14 10
7 0 19 7 26 15 16 20 2 19 -32 -3z"/>
<path d="M2048 3493 c-28 -33 -31 -48 -3 -20 15 16 25 30 23 33 -3 2 -12 -4
-20 -13z"/>
<path d="M3635 3280 c-3 -5 -1 -10 4 -10 6 0 11 5 11 10 0 6 -2 10 -4 10 -3 0
-8 -4 -11 -10z"/>
<path d="M3055 2539 c-4 -6 -5 -13 -2 -16 7 -7 27 6 27 18 0 12 -17 12 -25 -2z"/>
<path d="M1407 2457 c-4 -10 -7 -28 -6 -40 0 -21 1 -21 10 2 5 14 8 32 7 40
-3 13 -5 13 -11 -2z"/>
<path d="M3614 3072 c0 -31 4 -38 15 -34 11 4 11 7 3 10 -10 3 -10 7 -1 18 10
12 9 18 -3 30 -13 13 -15 11 -14 -24z"/>
<path d="M3142 2453 c5 -7 14 -10 19 -7 16 10 9 23 -10 21 -15 -1 -17 -4 -9
-14z"/>
<path d="M2756 2138 c5 -7 2 -9 -9 -5 -11 4 -14 2 -10 -9 3 -7 9 -14 13 -14
12 0 30 26 23 33 -11 12 -25 8 -17 -5z"/>
<path d="M1555 1730 c-3 -6 1 -13 10 -16 21 -9 26 -2 10 13 -9 8 -16 9 -20 3z"/>
</g>
</svg>
